<svg width="88" height="88" viewBox="0 0 88 88" fill="none" xmlns="http://www.w3.org/2000/svg">
<path d="M44 0C19.6985 0 0 19.6985 0 44C0 68.3015 19.6985 88 44 88C68.3015 88 88 68.3015 88 44C88 19.6985 68.3015 0 44 0ZM62.5646 56.2015C62.5646 58.0969 61.0246 59.6369 59.1292 59.6369H28.8708C26.9754 59.6369 25.4354 58.0969 25.4354 56.2015V36.6131C25.4354 34.7177 26.9754 33.1777 28.8708 33.1777H34.7177L36.1138 29.2769C36.3085 28.7354 36.8246 28.3631 37.4085 28.3631H50.5915C50.8792 28.3631 51.15 28.4477 51.3869 28.6169C51.6154 28.7777 51.7931 29.0146 51.8946 29.2769L53.2908 33.1777H59.1377C61.0331 33.1777 62.5731 34.7177 62.5731 36.6131V56.2015H62.5646Z" fill="#E6E6E6"/>
<path d="M43.9997 39.0156C40.2004 39.0156 37.1289 42.0956 37.1289 45.8864C37.1289 49.6856 40.2089 52.7572 43.9997 52.7572C47.7989 52.7572 50.8704 49.6772 50.8704 45.8864C50.8704 42.0956 47.7989 39.0156 43.9997 39.0156ZM46.9189 48.8056C46.1489 49.5756 45.0997 50.0156 43.9997 50.0156C42.8997 50.0156 41.8589 49.5841 41.0804 48.8056C40.302 48.0272 39.8704 46.9864 39.8704 45.8864C39.8704 44.7949 40.302 43.7456 41.0804 42.9672C41.8504 42.1972 42.8997 41.7572 43.9997 41.7572C45.0997 41.7572 46.1404 42.1887 46.9189 42.9672C47.6889 43.7372 48.1289 44.7864 48.1289 45.8864C48.1289 46.9864 47.6889 48.0356 46.9189 48.8056Z" fill="#E6E6E6"/>
</svg>
