<svg width="20" height="20" viewBox="0 0 20 20" fill="none" xmlns="http://www.w3.org/2000/svg">
<path fill-rule="evenodd" clip-rule="evenodd" d="M18.75 10C18.75 7.67936 17.8281 5.45376 16.1872 3.81282C14.5462 2.17187 12.3206 1.25 10 1.25C7.67936 1.25 5.45376 2.17187 3.81282 3.81282C2.17187 5.45376 1.25 7.67936 1.25 10C1.25 12.3206 2.17187 14.5462 3.81282 16.1872C5.45376 17.8281 7.67936 18.75 10 18.75C12.3206 18.75 14.5462 17.8281 16.1872 16.1872C17.8281 14.5462 18.75 12.3206 18.75 10ZM20 10C20 7.34783 18.9464 4.8043 17.0711 2.92893C15.1957 1.05357 12.6522 1.50876e-07 10 1.19249e-07C7.34784 8.7622e-08 4.8043 1.05357 2.92893 2.92893C1.05357 4.8043 1.50876e-07 7.34783 1.19249e-07 10C8.7622e-08 12.6522 1.05357 15.1957 2.92893 17.0711C4.8043 18.9464 7.34784 20 10 20C12.6522 20 15.1957 18.9464 17.0711 17.0711C18.9464 15.1957 20 12.6522 20 10Z" fill="#424242"/>
<path fill-rule="evenodd" clip-rule="evenodd" d="M9.55788 14.1933C9.49968 14.1353 9.4535 14.0663 9.42199 13.9904C9.39049 13.9144 9.37427 13.833 9.37427 13.7508C9.37427 13.6686 9.39049 13.5872 9.42199 13.5113C9.4535 13.4354 9.49968 13.3664 9.55788 13.3083L12.8666 10.0008L9.55788 6.69334C9.44053 6.57598 9.37459 6.41681 9.37459 6.25084C9.37459 6.08487 9.44053 5.92569 9.55788 5.80834C9.67524 5.69098 9.83441 5.62505 10.0004 5.62505C10.1664 5.62505 10.3255 5.69098 10.4429 5.80834L14.1929 9.55834C14.2511 9.61639 14.2973 9.68536 14.3288 9.76129C14.3603 9.83723 14.3765 9.91863 14.3765 10.0008C14.3765 10.083 14.3603 10.1644 14.3288 10.2404C14.2973 10.3163 14.2511 10.3853 14.1929 10.4433L10.4429 14.1933C10.3848 14.2515 10.3159 14.2977 10.2399 14.3292C10.164 14.3607 10.0826 14.377 10.0004 14.377C9.91818 14.377 9.83677 14.3607 9.76084 14.3292C9.68491 14.2977 9.61594 14.2515 9.55788 14.1933Z" fill="#424242"/>
<path fill-rule="evenodd" clip-rule="evenodd" d="M5.625 10C5.625 9.83424 5.69085 9.67527 5.80806 9.55806C5.92527 9.44085 6.08424 9.375 6.25 9.375L12.5 9.375C12.6658 9.375 12.8247 9.44085 12.9419 9.55806C13.0592 9.67527 13.125 9.83424 13.125 10C13.125 10.1658 13.0592 10.3247 12.9419 10.4419C12.8247 10.5592 12.6658 10.625 12.5 10.625L6.25 10.625C6.08424 10.625 5.92527 10.5592 5.80806 10.4419C5.69085 10.3247 5.625 10.1658 5.625 10Z" fill="#424242"/>
</svg>
