<svg width="33" height="33" viewBox="0 0 33 33" fill="none" xmlns="http://www.w3.org/2000/svg">
<path fill-rule="evenodd" clip-rule="evenodd" d="M16.5 30.9375C20.3291 30.9375 24.0013 29.4164 26.7088 26.7088C29.4164 24.0013 30.9375 20.3291 30.9375 16.5C30.9375 12.6709 29.4164 8.9987 26.7088 6.29114C24.0013 3.58359 20.3291 2.0625 16.5 2.0625C12.6709 2.0625 8.9987 3.58359 6.29114 6.29114C3.58359 8.9987 2.0625 12.6709 2.0625 16.5C2.0625 20.3291 3.58359 24.0013 6.29114 26.7088C8.9987 29.4164 12.6709 30.9375 16.5 30.9375ZM16.5 33C20.8761 33 25.0729 31.2616 28.1673 28.1673C31.2616 25.0729 33 20.8761 33 16.5C33 12.1239 31.2616 7.92709 28.1673 4.83274C25.0729 1.73839 20.8761 0 16.5 0C12.1239 0 7.92709 1.73839 4.83274 4.83274C1.73839 7.92709 0 12.1239 0 16.5C0 20.8761 1.73839 25.0729 4.83274 28.1673C7.92709 31.2616 12.1239 33 16.5 33Z" fill="#424242"/>
<path d="M16.4998 8.71484C17.0117 8.71484 17.5027 8.91164 17.8647 9.26195C18.2266 9.61225 18.43 10.0874 18.43 10.5828C18.43 10.8069 18.3914 11.0217 18.3142 11.2272C22.2421 11.9837 25.1857 15.1685 25.1857 18.9884H7.81397C7.81397 15.1685 10.7575 11.9837 14.6854 11.2272C14.6082 11.0217 14.5696 10.8069 14.5696 10.5828C14.5696 10.0874 14.773 9.61225 15.135 9.26195C15.4969 8.91164 15.9879 8.71484 16.4998 8.71484ZM26.1508 21.7903H6.84888V19.9224H26.1508V21.7903ZM16.4998 12.9177C13.4984 12.9177 10.9505 14.6829 10.0723 17.1205H22.9273C22.0491 14.6829 19.5013 12.9177 16.4998 12.9177Z" fill="#424242"/>
</svg>
