<svg width="68" height="68" viewBox="0 0 68 68" fill="none" xmlns="http://www.w3.org/2000/svg">
<path fill-rule="evenodd" clip-rule="evenodd" d="M68 34C68 43.0174 64.4179 51.6654 58.0416 58.0416C51.6654 64.4179 43.0174 68 34 68C24.9826 68 16.3346 64.4179 9.95837 58.0416C3.58213 51.6654 0 43.0174 0 34C0 24.9826 3.58213 16.3346 9.95837 9.95837C16.3346 3.58213 24.9826 0 34 0C43.0174 0 51.6654 3.58213 58.0416 9.95837C64.4179 16.3346 68 24.9826 68 34V34ZM32.4955 45.2455C32.0965 45.6445 31.8723 46.1857 31.8723 46.75C31.8723 47.3143 32.0965 47.8555 32.4955 48.2545C32.8945 48.6535 33.4357 48.8777 34 48.8777C34.5643 48.8777 35.1055 48.6535 35.5045 48.2545L48.2545 35.5045C48.4524 35.3071 48.6094 35.0726 48.7165 34.8144C48.8237 34.5563 48.8788 34.2795 48.8788 34C48.8788 33.7205 48.8237 33.4437 48.7165 33.1856C48.6094 32.9274 48.4524 32.6929 48.2545 32.4955L35.5045 19.7455C35.3069 19.5479 35.0724 19.3912 34.8142 19.2843C34.5561 19.1773 34.2794 19.1223 34 19.1223C33.7206 19.1223 33.4439 19.1773 33.1858 19.2843C32.9276 19.3912 32.6931 19.5479 32.4955 19.7455C32.2979 19.9431 32.1412 20.1776 32.0343 20.4358C31.9273 20.6939 31.8723 20.9706 31.8723 21.25C31.8723 21.5294 31.9273 21.8061 32.0343 22.0642C32.1412 22.3224 32.2979 22.5569 32.4955 22.7545L41.6203 31.875H21.25C20.6864 31.875 20.1459 32.0989 19.7474 32.4974C19.3489 32.8959 19.125 33.4364 19.125 34C19.125 34.5636 19.3489 35.1041 19.7474 35.5026C20.1459 35.9011 20.6864 36.125 21.25 36.125H41.6203L32.4955 45.2455V45.2455Z" fill="#E0E0E0"/>
</svg>
