<svg width="53" height="53" viewBox="0 0 53 53" fill="none" xmlns="http://www.w3.org/2000/svg">
<path fill-rule="evenodd" clip-rule="evenodd" d="M3.31254 26.5C3.31254 32.6497 5.7555 38.5475 10.104 42.896C14.4525 47.2445 20.3503 49.6875 26.5 49.6875C32.6497 49.6875 38.5475 47.2445 42.896 42.896C47.2445 38.5475 49.6875 32.6497 49.6875 26.5C49.6875 20.3503 47.2445 14.4524 42.896 10.104C38.5476 5.75546 32.6497 3.3125 26.5 3.3125C20.3503 3.3125 14.4525 5.75545 10.104 10.104C5.7555 14.4524 3.31254 20.3503 3.31254 26.5V26.5ZM4.4618e-05 26.5C4.43108e-05 33.5282 2.792 40.2686 7.76171 45.2383C12.7314 50.208 19.4718 53 26.5 53C33.5283 53 40.2686 50.208 45.2383 45.2383C50.208 40.2686 53 33.5282 53 26.5C53 19.4717 50.208 12.7314 45.2383 7.76166C40.2686 2.79195 33.5283 -8.51137e-07 26.5 -1.15835e-06C19.4718 -1.46556e-06 12.7314 2.79195 7.76171 7.76166C2.792 12.7314 4.49252e-05 19.4717 4.4618e-05 26.5V26.5Z" fill="#E0E0E0"/>
<path fill-rule="evenodd" clip-rule="evenodd" d="M27.6731 15.3889C27.8273 15.5428 27.9497 15.7255 28.0332 15.9268C28.1167 16.128 28.1597 16.3437 28.1597 16.5616C28.1597 16.7794 28.1167 16.9951 28.0332 17.1963C27.9497 17.3976 27.8273 17.5803 27.6731 17.7342L18.9049 26.499L27.6731 35.2639C27.9841 35.5749 28.1588 35.9967 28.1588 36.4365C28.1588 36.8764 27.9841 37.2982 27.6731 37.6092C27.3621 37.9202 26.9403 38.0949 26.5005 38.0949C26.0606 38.0949 25.6388 37.9202 25.3278 37.6092L15.3903 27.6717C15.2361 27.5178 15.1137 27.335 15.0302 27.1338C14.9467 26.9326 14.9038 26.7169 14.9038 26.499C14.9038 26.2812 14.9467 26.0655 15.0302 25.8643C15.1137 25.663 15.2361 25.4803 15.3903 25.3264L25.3278 15.3889C25.4817 15.2347 25.6645 15.1123 25.8657 15.0288C26.0669 14.9453 26.2826 14.9023 26.5005 14.9023C26.7183 14.9023 26.934 14.9453 27.1352 15.0288C27.3365 15.1123 27.5192 15.2347 27.6731 15.3889V15.3889Z" fill="#E0E0E0"/>
<path fill-rule="evenodd" clip-rule="evenodd" d="M38.0937 26.5C38.0937 26.9393 37.9193 27.3605 37.6086 27.6711C37.298 27.9818 36.8768 28.1562 36.4375 28.1562L19.875 28.1562C19.4358 28.1562 19.0145 27.9818 18.7039 27.6711C18.3933 27.3605 18.2188 26.9393 18.2188 26.5C18.2188 26.0607 18.3933 25.6395 18.7039 25.3289C19.0145 25.0182 19.4358 24.8437 19.875 24.8437L36.4375 24.8437C36.8768 24.8437 37.298 25.0182 37.6086 25.3289C37.9193 25.6395 38.0937 26.0607 38.0937 26.5V26.5Z" fill="#E0E0E0"/>
</svg>
