<svg width="51" height="51" viewBox="0 0 51 51" fill="none" xmlns="http://www.w3.org/2000/svg">
<path fill-rule="evenodd" clip-rule="evenodd" d="M25.5 11.1562C25.9227 11.1562 26.3281 11.3242 26.627 11.623C26.9258 11.9219 27.0938 12.3273 27.0938 12.75V41.4375C27.0938 41.8602 26.9258 42.2656 26.627 42.5645C26.3281 42.8633 25.9227 43.0312 25.5 43.0312C25.0773 43.0312 24.6719 42.8633 24.373 42.5645C24.0742 42.2656 23.9062 41.8602 23.9062 41.4375V12.75C23.9062 12.3273 24.0742 11.9219 24.373 11.623C24.6719 11.3242 25.0773 11.1562 25.5 11.1562Z" fill="#424242"/>
<path fill-rule="evenodd" clip-rule="evenodd" d="M24.3712 8.43307C24.5192 8.28465 24.6951 8.16689 24.8887 8.08655C25.0824 8.0062 25.2899 7.96484 25.4996 7.96484C25.7092 7.96484 25.9168 8.0062 26.1104 8.08655C26.304 8.16689 26.4799 8.28465 26.6279 8.43307L36.1904 17.9956C36.4897 18.2948 36.6578 18.7007 36.6578 19.1239C36.6578 19.5472 36.4897 19.9531 36.1904 20.2523C35.8912 20.5516 35.4853 20.7197 35.0621 20.7197C34.6388 20.7197 34.233 20.5516 33.9337 20.2523L25.4996 11.815L17.0654 20.2523C16.7662 20.5516 16.3603 20.7197 15.9371 20.7197C15.5138 20.7197 15.108 20.5516 14.8087 20.2523C14.5094 19.9531 14.3413 19.5472 14.3413 19.1239C14.3413 18.7007 14.5094 18.2948 14.8087 17.9956L24.3712 8.43307Z" fill="#424242"/>
</svg>
