<svg width="156" height="37" viewBox="0 0 156 37" fill="none" xmlns="http://www.w3.org/2000/svg" preserveAspectRatio="none">
<path d="M155.12 25.9424C155.12 29.7024 152 32.8924 147.79 33.4524C131.52 35.5924 118.09 36.1624 108.5 36.2624C84.6 36.5024 72.47 33.9624 41.02 32.7724C28.3 32.2924 17.28 32.2224 8.67 32.2824C3.89 32.3224 0 28.9124 0 24.7024V11.6624C0 8.10242 2.8 5.02242 6.74 4.25242C13.59 2.92242 22.58 1.49242 33.1 0.662419C59.99 -1.45758 75.63 1.99242 115.31 4.25242C122.88 4.68242 133.63 5.20242 146.74 5.50242C151.39 5.61242 155.1 8.98242 155.1 13.0824V25.9424H155.12Z" fill="#D52F4F"/>
</svg>
