<svg width="214" height="46" viewBox="0 0 214 46" fill="none" xmlns="http://www.w3.org/2000/svg" preserveAspectRatio="none">
<path d="M205.868 37.7715C189.001 43.4394 170.593 44.5987 152.955 45.5004C133.294 46.6597 119.029 45.8868 61.876 42.28C41.4434 40.9919 23.1312 39.8326 7.32488 38.802C6.84298 38.802 4.24072 38.802 2.12036 36.4834C0.77104 35.0664 0 33.1342 0 30.9443V13.9408C0 9.68994 3.27692 6.21194 7.32488 6.21194C13.686 5.05261 23.6131 3.2492 35.8534 1.96106C69.7791 -1.77457 92.4284 0.544098 134.932 2.99158C151.027 3.89328 175.604 5.18142 206.157 6.21194C206.735 6.21194 209.337 6.34076 211.361 8.53061C212.711 9.94757 213.482 11.8798 213.482 14.0696C213.482 19.4799 215.602 31.3308 211.265 35.1952C210.108 36.2257 208.663 36.741 207.313 37.2563C206.928 37.5139 206.35 37.6427 205.868 37.7715Z" fill="#430D34"/>
</svg>
