<svg width="218" height="46" viewBox="0 0 218 46" fill="none" xmlns="http://www.w3.org/2000/svg" preserveAspectRatio="none">
<path d="M209.716 37.7715C192.534 43.4394 173.781 44.5987 155.814 45.5004C135.785 46.6597 121.254 45.8868 63.0325 42.28C42.2181 40.9919 23.5636 39.8326 7.4618 38.802C6.97089 38.802 4.31999 38.802 2.15999 36.4834C0.785452 35.0664 0 33.1342 0 30.9443V13.9408C0 9.68994 3.33817 6.21194 7.4618 6.21194C13.9418 5.05261 24.0545 3.2492 36.5235 1.96106C71.0834 -1.77457 94.1561 0.544098 137.454 2.99158C153.85 3.89328 178.887 5.18142 210.01 6.21194C210.599 6.21194 213.25 6.34076 215.312 8.53061C216.687 9.94757 217.472 11.8798 217.472 14.0696C217.472 19.4799 219.632 31.3308 215.214 35.1952C214.036 36.2257 212.563 36.741 211.188 37.2563C210.796 37.5139 210.207 37.6427 209.716 37.7715Z" fill="#D05B3F"/>
</svg>
