<svg width="53" height="53" viewBox="0 0 53 53" fill="none" xmlns="http://www.w3.org/2000/svg">
<path fill-rule="evenodd" clip-rule="evenodd" d="M26.5 49.6875C32.6497 49.6875 38.5475 47.2445 42.896 42.896C47.2445 38.5475 49.6875 32.6497 49.6875 26.5C49.6875 20.3503 47.2445 14.4525 42.896 10.104C38.5475 5.75546 32.6497 3.3125 26.5 3.3125C20.3503 3.3125 14.4525 5.75546 10.104 10.104C5.75546 14.4525 3.3125 20.3503 3.3125 26.5C3.3125 32.6497 5.75546 38.5475 10.104 42.896C14.4525 47.2445 20.3503 49.6875 26.5 49.6875V49.6875ZM26.5 53C33.5282 53 40.2686 50.208 45.2383 45.2383C50.208 40.2686 53 33.5282 53 26.5C53 19.4718 50.208 12.7314 45.2383 7.76167C40.2686 2.79196 33.5282 0 26.5 0C19.4718 0 12.7314 2.79196 7.76167 7.76167C2.79196 12.7314 0 19.4718 0 26.5C0 33.5282 2.79196 40.2686 7.76167 45.2383C12.7314 50.208 19.4718 53 26.5 53V53Z" fill="#E0E0E0"/>
<path fill-rule="evenodd" clip-rule="evenodd" d="M35.6512 17.3488C35.7618 17.4591 35.8495 17.5901 35.9093 17.7344C35.9692 17.8786 36 18.0332 36 18.1894C36 18.3456 35.9692 18.5002 35.9093 18.6444C35.8495 18.7887 35.7618 18.9197 35.6512 19.03L19.0294 35.6518C18.8064 35.8748 18.5041 36 18.1888 36C17.8735 36 17.5711 35.8748 17.3482 35.6518C17.1252 35.4289 17 35.1265 17 34.8112C17 34.4959 17.1252 34.1936 17.3482 33.9706L33.97 17.3488C34.0803 17.2382 34.2113 17.1505 34.3556 17.0907C34.4998 17.0308 34.6544 17 34.8106 17C34.9668 17 35.1214 17.0308 35.2656 17.0907C35.4099 17.1505 35.5409 17.2382 35.6512 17.3488V17.3488Z" fill="#E0E0E0"/>
<path fill-rule="evenodd" clip-rule="evenodd" d="M17.3488 17.3488C17.2382 17.4591 17.1505 17.5901 17.0907 17.7344C17.0308 17.8786 17 18.0332 17 18.1894C17 18.3456 17.0308 18.5002 17.0907 18.6444C17.1505 18.7887 17.2382 18.9197 17.3488 19.03L33.9706 35.6518C34.1936 35.8748 34.4959 36 34.8112 36C35.1265 36 35.4289 35.8748 35.6518 35.6518C35.8748 35.4289 36 35.1265 36 34.8112C36 34.4959 35.8748 34.1936 35.6518 33.9706L19.03 17.3488C18.9197 17.2382 18.7887 17.1505 18.6444 17.0907C18.5002 17.0308 18.3456 17 18.1894 17C18.0332 17 17.8786 17.0308 17.7344 17.0907C17.5901 17.1505 17.4591 17.2382 17.3488 17.3488V17.3488Z" fill="#E0E0E0"/>
</svg>
