<svg width="53" height="115" viewBox="0 0 53 115" fill="none" xmlns="http://www.w3.org/2000/svg">
<path fill-rule="evenodd" clip-rule="evenodd" d="M26.5 49.6875C32.6497 49.6875 38.5475 47.2445 42.896 42.896C47.2445 38.5475 49.6875 32.6497 49.6875 26.5C49.6875 20.3503 47.2445 14.4525 42.896 10.104C38.5475 5.75546 32.6497 3.3125 26.5 3.3125C20.3503 3.3125 14.4525 5.75546 10.104 10.104C5.75546 14.4525 3.3125 20.3503 3.3125 26.5C3.3125 32.6497 5.75546 38.5475 10.104 42.896C14.4525 47.2445 20.3503 49.6875 26.5 49.6875ZM26.5 53C33.5282 53 40.2686 50.208 45.2383 45.2383C50.208 40.2686 53 33.5282 53 26.5C53 19.4718 50.208 12.7314 45.2383 7.76167C40.2686 2.79196 33.5282 0 26.5 0C19.4718 0 12.7314 2.79196 7.76167 7.76167C2.79196 12.7314 0 19.4718 0 26.5C0 33.5282 2.79196 40.2686 7.76167 45.2383C12.7314 50.208 19.4718 53 26.5 53Z" fill="#424242"/>
<path d="M26.5 14C27.3222 14 28.1107 14.3161 28.692 14.8787C29.2734 15.4413 29.6 16.2044 29.6 17C29.6 17.36 29.538 17.705 29.414 18.035C35.7225 19.25 40.45 24.365 40.45 30.5H12.55C12.55 24.365 17.2775 19.25 23.586 18.035C23.462 17.705 23.4 17.36 23.4 17C23.4 16.2044 23.7266 15.4413 24.308 14.8787C24.8893 14.3161 25.6778 14 26.5 14ZM42 35H11V32H42V35ZM26.5 20.75C21.6795 20.75 17.5875 23.585 16.177 27.5H36.823C35.4125 23.585 31.3205 20.75 26.5 20.75Z" fill="#424242"/>
<path fill-rule="evenodd" clip-rule="evenodd" d="M25.5 75.1562C25.9227 75.1562 26.3281 75.3242 26.627 75.623C26.9258 75.9219 27.0938 76.3273 27.0938 76.75V105.438C27.0938 105.86 26.9258 106.266 26.627 106.564C26.3281 106.863 25.9227 107.031 25.5 107.031C25.0773 107.031 24.6719 106.863 24.373 106.564C24.0742 106.266 23.9062 105.86 23.9062 105.438V76.75C23.9062 76.3273 24.0742 75.9219 24.373 75.623C24.6719 75.3242 25.0773 75.1562 25.5 75.1562Z" fill="#424242"/>
<path fill-rule="evenodd" clip-rule="evenodd" d="M24.3712 72.4331C24.5192 72.2846 24.6951 72.1669 24.8887 72.0865C25.0824 72.0062 25.2899 71.9648 25.4996 71.9648C25.7092 71.9648 25.9168 72.0062 26.1104 72.0865C26.304 72.1669 26.4799 72.2846 26.6279 72.4331L36.1904 81.9956C36.4897 82.2948 36.6578 82.7007 36.6578 83.1239C36.6578 83.5472 36.4897 83.9531 36.1904 84.2523C35.8912 84.5516 35.4853 84.7197 35.0621 84.7197C34.6388 84.7197 34.233 84.5516 33.9337 84.2523L25.4996 75.815L17.0654 84.2523C16.7662 84.5516 16.3603 84.7197 15.9371 84.7197C15.5138 84.7197 15.108 84.5516 14.8087 84.2523C14.5094 83.9531 14.3413 83.5472 14.3413 83.1239C14.3413 82.7007 14.5094 82.2948 14.8087 81.9956L24.3712 72.4331Z" fill="#424242"/>
</svg>
