<svg width="33" height="33" viewBox="0 0 33 33" fill="none" xmlns="http://www.w3.org/2000/svg">
<circle cx="16.5" cy="16.5" r="16.5" fill="#430D34"/>
<path d="M16.6509 9C17.1629 9 17.6538 9.1968 18.0158 9.5471C18.3778 9.89741 18.5811 10.3725 18.5811 10.8679C18.5811 11.0921 18.5425 11.3069 18.4653 11.5124C22.3933 12.2689 25.3368 15.4537 25.3368 19.2736H7.96509C7.96509 15.4537 10.9086 12.2689 14.8366 11.5124C14.7594 11.3069 14.7208 11.0921 14.7208 10.8679C14.7208 10.3725 14.9241 9.89741 15.2861 9.5471C15.6481 9.1968 16.139 9 16.6509 9V9ZM26.3019 22.0755H7V20.2075H26.3019V22.0755ZM16.6509 13.2028C13.6495 13.2028 11.1017 14.968 10.2234 17.4057H23.0785C22.2002 14.968 19.6524 13.2028 16.6509 13.2028Z" fill="#E5E5E5"/>
<path d="M16.6509 9C17.1629 9 17.6538 9.1968 18.0158 9.5471C18.3778 9.89741 18.5811 10.3725 18.5811 10.8679C18.5811 11.0921 18.5425 11.3069 18.4653 11.5124C22.3933 12.2689 25.3368 15.4537 25.3368 19.2736H7.96509C7.96509 15.4537 10.9086 12.2689 14.8366 11.5124C14.7594 11.3069 14.7208 11.0921 14.7208 10.8679C14.7208 10.3725 14.9241 9.89741 15.2861 9.5471C15.6481 9.1968 16.139 9 16.6509 9V9ZM26.3019 22.0755H7V20.2075H26.3019V22.0755ZM16.6509 13.2028C13.6495 13.2028 11.1017 14.968 10.2234 17.4057H23.0785C22.2002 14.968 19.6524 13.2028 16.6509 13.2028Z" fill="#E5E5E5"/>
</svg>
