<svg width="33" height="33" viewBox="0 0 33 33" fill="none" xmlns="http://www.w3.org/2000/svg">
<path fill-rule="evenodd" clip-rule="evenodd" d="M16.5 33C25.6127 33 33 25.6127 33 16.5C33 7.3873 25.6127 0 16.5 0C7.3873 0 0 7.3873 0 16.5C0 25.6127 7.3873 33 16.5 33ZM18.0158 9.5471C17.6538 9.1968 17.1629 9 16.6509 9C16.139 9 15.6481 9.1968 15.2861 9.5471C14.9241 9.89741 14.7208 10.3725 14.7208 10.8679C14.7208 11.0921 14.7594 11.3069 14.8366 11.5124C10.9086 12.2689 7.96509 15.4537 7.96509 19.2736H25.3368C25.3368 15.4537 22.3933 12.2689 18.4653 11.5124C18.5425 11.3069 18.5811 11.0921 18.5811 10.8679C18.5811 10.3725 18.3778 9.89741 18.0158 9.5471ZM7 20.2075V22.0755H26.3019V20.2075H7ZM10.2234 17.4057C11.1017 14.968 13.6495 13.2028 16.6509 13.2028C19.6524 13.2028 22.2002 14.968 23.0785 17.4057H10.2234Z" fill="#133C64"/>
</svg>
