<svg width="53" height="117" viewBox="0 0 53 117" fill="none" xmlns="http://www.w3.org/2000/svg">
<path fill-rule="evenodd" clip-rule="evenodd" d="M26.5 49.6875C32.6497 49.6875 38.5475 47.2445 42.896 42.896C47.2445 38.5475 49.6875 32.6497 49.6875 26.5C49.6875 20.3503 47.2445 14.4525 42.896 10.104C38.5475 5.75546 32.6497 3.3125 26.5 3.3125C20.3503 3.3125 14.4525 5.75546 10.104 10.104C5.75546 14.4525 3.3125 20.3503 3.3125 26.5C3.3125 32.6497 5.75546 38.5475 10.104 42.896C14.4525 47.2445 20.3503 49.6875 26.5 49.6875ZM26.5 53C33.5282 53 40.2686 50.208 45.2383 45.2383C50.208 40.2686 53 33.5282 53 26.5C53 19.4718 50.208 12.7314 45.2383 7.76167C40.2686 2.79196 33.5282 0 26.5 0C19.4718 0 12.7314 2.79196 7.76167 7.76167C2.79196 12.7314 0 19.4718 0 26.5C0 33.5282 2.79196 40.2686 7.76167 45.2383C12.7314 50.208 19.4718 53 26.5 53Z" fill="#424242"/>
<path fill-rule="evenodd" clip-rule="evenodd" d="M46.1812 9.646L10.6472 45.18L7.81879 42.3516L43.3528 6.81757L46.1812 9.646Z" fill="#424242"/>
<path fill-rule="evenodd" clip-rule="evenodd" d="M26.5 77.1562C26.9227 77.1562 27.3281 77.3242 27.627 77.623C27.9258 77.9219 28.0938 78.3273 28.0938 78.75V107.438C28.0938 107.86 27.9258 108.266 27.627 108.564C27.3281 108.863 26.9227 109.031 26.5 109.031C26.0773 109.031 25.6719 108.863 25.373 108.564C25.0742 108.266 24.9062 107.86 24.9062 107.438V78.75C24.9062 78.3273 25.0742 77.9219 25.373 77.623C25.6719 77.3242 26.0773 77.1562 26.5 77.1562V77.1562Z" fill="#424242"/>
<path fill-rule="evenodd" clip-rule="evenodd" d="M25.3712 74.4331C25.5192 74.2846 25.6951 74.1669 25.8887 74.0865C26.0824 74.0062 26.2899 73.9648 26.4996 73.9648C26.7092 73.9648 26.9168 74.0062 27.1104 74.0865C27.304 74.1669 27.4799 74.2846 27.6279 74.4331L37.1904 83.9956C37.4897 84.2948 37.6578 84.7007 37.6578 85.1239C37.6578 85.5472 37.4897 85.9531 37.1904 86.2523C36.8912 86.5516 36.4853 86.7197 36.0621 86.7197C35.6388 86.7197 35.233 86.5516 34.9337 86.2523L26.4996 77.815L18.0654 86.2523C17.7662 86.5516 17.3603 86.7197 16.9371 86.7197C16.5138 86.7197 16.108 86.5516 15.8087 86.2523C15.5094 85.9531 15.3413 85.5472 15.3413 85.1239C15.3413 84.7007 15.5094 84.2948 15.8087 83.9956L25.3712 74.4331Z" fill="#424242"/>
</svg>
